<?xml version="1.0" encoding="UTF-8" standalone="no"?>
<!-- Created with Inkscape (http://www.inkscape.org/) -->

<svg
   width="400"
   height="400"
   viewBox="0 0 400.00001 400.00001"
   version="1.1"
   id="svg5"
   inkscape:version="1.1.2 (b8e25be8, 2022-02-05)"
   sodipodi:docname="karate-logo-nowhite.svg"
   xmlns:inkscape="http://www.inkscape.org/namespaces/inkscape"
   xmlns:sodipodi="http://sodipodi.sourceforge.net/DTD/sodipodi-0.dtd"
   xmlns="http://www.w3.org/2000/svg"
   xmlns:svg="http://www.w3.org/2000/svg">
  <sodipodi:namedview
     id="namedview7"
     pagecolor="#ffffff"
     bordercolor="#666666"
     borderopacity="1.0"
     inkscape:pageshadow="2"
     inkscape:pageopacity="0.0"
     inkscape:pagecheckerboard="0"
     inkscape:document-units="px"
     showgrid="true"
     units="px"
     inkscape:zoom="1.1852735"
     inkscape:cx="283.90072"
     inkscape:cy="290.65022"
     inkscape:window-width="1728"
     inkscape:window-height="989"
     inkscape:window-x="0"
     inkscape:window-y="38"
     inkscape:window-maximized="0"
     inkscape:current-layer="g88">
    <inkscape:grid
       type="xygrid"
       id="grid9" />
  </sodipodi:namedview>
  <defs
     id="defs2" />
  <g
     inkscape:label="Layer 1"
     inkscape:groupmode="layer"
     id="layer1">
    <g
       id="g832"
       transform="matrix(0.92489255,0,0,0.92489255,53.095872,-39.550895)">
      <path
         id="path727"
         style="fill:#000000;stroke-width:2.00001"
         inkscape:label="circle"
         d="M 200,20 A 180,180 0 0 0 20,200 180,180 0 0 0 200,380 180,180 0 0 0 380,200 180,180 0 0 0 200,20 Z m 9.55078,45.201172 c 2.82654,-0.04079 4.67923,0.113049 6.43945,0.451172 4.36688,0.839782 4.66692,1.397076 2.84961,5.291015 -1.80921,3.876259 -1.71645,2.998948 -1.77539,17.001953 -0.0502,11.750325 -0.29761,16.214358 -0.93554,16.851568 -0.0649,0.0656 -1.3534,0.4423 -2.86133,0.83789 -4.98712,1.30829 -4.86377,1.1525 -5.45899,6.94921 -0.25783,2.50536 -0.45031,4.57118 -0.42968,4.5918 0.0205,0.0199 5.13586,1.10916 11.36718,2.42188 l 11.33008,2.38672 6.14258,3.46093 6.14453,3.46289 4.50586,7.41211 c 2.47811,4.07812 4.54174,7.41406 4.58594,7.41407 0.045,0 3.56298,-1.3339 7.8164,-2.96485 4.25343,-1.63168 7.77122,-2.928 7.81836,-2.88086 0.11492,0.11493 3.81544,25.44661 3.72852,25.51953 -0.53702,0.45304 -25.42966,7.79487 -26.0293,7.67774 -0.41621,-0.0818 -4.87709,-1.41202 -9.91211,-2.95899 -5.035,-1.54696 -9.19234,-2.77661 -9.24023,-2.73242 -0.048,0.045 -0.30172,5.22949 -0.5625,11.52344 -0.26152,6.29395 -0.50032,11.46106 -0.53125,11.48242 -0.0308,0.0213 -2.08731,1.72305 -4.56836,3.78125 l -4.51172,3.74219 -3.5293,-0.11914 c -1.94034,-0.0663 -11.09848,-0.23722 -20.35156,-0.38086 l -16.82422,-0.26172 -5.44336,-3.36133 c -2.99375,-1.84973 -6.19467,-3.81957 -7.11328,-4.375 -2.01916,-1.22285 -2.03986,-0.59871 0.18555,-5.47461 1.021,-2.23574 1.85547,-4.20992 1.85547,-4.38672 0,-0.20332 7.29851,-2.85789 19.90039,-7.24023 11.5485,-4.0155 19.61965,-6.94463 19.23437,-6.97852 -1.628,-0.1429 -39.24606,-1.075 -41.25195,-1.02343 -3.7967,0.0994 -12.3498,-4.16362 -16.61133,-8.2793 -0.47661,-0.46039 -1.22792,-23.61849 -0.77929,-24.02735 5.90426,-5.38344 9.556,-8.01135 15.95898,-11.47656 l 6.47266,-3.50195 8.92187,0.35547 c 7.78714,0.31013 9.01301,0.30917 9.64063,-0.004 0.39484,-0.19742 4.73669,-2.00626 9.64648,-4.01953 l 8.92578,-3.66211 -8.46289,-0.54883 c -4.65491,-0.30202 -8.6372,-0.5447 -8.85156,-0.54101 -0.55765,0.011 -5.93712,-7.497223 -6.17578,-8.619143 -0.10535,-0.494292 -0.7786,-4.8068 -1.4961,-9.583985 l -1.30468,-8.6875 3.80664,-6.466796 c 2.96134,-5.029857 3.91986,-6.470636 4.3125,-6.482422 0.27772,-0.0088 5.29135,-0.392373 11.14257,-0.853516 5.6527,-0.445306 9.45277,-0.681864 12.2793,-0.722656 z m 70.75391,54.296878 4.2539,0.13281 c 2.3396,0.0729 5.36597,0.23875 6.72657,0.36914 2.64161,0.25414 4.37149,0.72039 5.23632,1.41211 0.52966,0.42357 0.80699,3.19853 1.38672,13.86523 l 0.0566,1.06641 -11.3789,4.81055 c -6.25934,2.64605 -11.56681,4.87116 -11.79297,4.94336 -0.48619,0.15543 -6.59729,-8.4544 -6.23633,-8.78516 0.1186,-0.10902 1.88645,-0.83391 3.92774,-1.61328 2.04051,-0.77938 3.76764,-1.45263 3.83984,-1.4961 0.0722,-0.0436 4.4e-4,-2.11972 -0.16016,-4.61328 -0.16059,-2.49429 -0.22313,-4.6457 -0.14062,-4.78125 0.0832,-0.13628 1.07893,-1.38702 2.21484,-2.77929 z m 0.59765,8.15625 c -0.10755,0 -0.13023,0.52779 -0.0508,1.17382 0.0788,0.64679 0.27909,2.73492 0.44336,4.64063 0.16501,1.90498 0.33301,3.50555 0.375,3.55859 0.10387,0.13039 9.493,-2.53719 9.48047,-2.69336 -0.0139,-0.16868 -10.00348,-6.67968 -10.24805,-6.67968 z m -61.25781,13.4414 c -0.44632,0.23619 -1.72882,2.69577 -4.28906,7.61328 -2.43683,4.67994 -5.09568,9.77069 -5.9082,11.3125 l -1.47852,2.80469 4.82227,-3.75 4.82226,-3.75 0.14063,-1.66992 c 0.0773,-0.91934 0.59882,-3.99324 1.16015,-6.83008 0.78674,-3.9794 1.17679,-5.96666 0.73047,-5.73047 z m -64.20898,61.66407 c 0.75166,0.046 2.29062,0.54639 5.69726,1.56445 3.1396,0.93848 8.32369,2.34415 11.52149,3.125 3.19781,0.78011 5.94705,1.48803 6.11132,1.57422 0.19154,0.10092 -0.45719,1.04585 -1.83398,2.66797 l -2.13086,2.51171 -2.54297,6.35157 -2.54492,6.35351 7.71875,-0.17773 c 4.24459,-0.0972 7.7311,-0.19007 7.74805,-0.20703 0.0162,-0.0169 0.26979,-2.42363 0.56445,-5.34961 0.48693,-4.82654 0.58819,-5.36583 1.08984,-5.81445 0.3035,-0.27256 2.34776,-1.80477 4.54297,-3.40626 l 3.99219,-2.9121 4.18555,2.96679 4.1875,2.9668 0.43945,5.63477 c 0.24163,3.09981 0.45667,5.63476 0.47656,5.63476 0.0198,0 3.05668,-0.0341 6.74805,-0.0762 l 6.71094,-0.0762 -4.02539,-8.33594 c -2.21364,-4.58418 -3.98973,-8.37108 -3.94922,-8.41602 0.0413,-0.045 2.67195,-0.34119 5.84765,-0.66015 5.39966,-0.54219 6.04203,-0.66025 9.9043,-1.83594 2.27109,-0.69099 4.28115,-1.25781 4.4668,-1.25781 0.18563,0 4.952,5.26022 10.59179,11.6875 12.44647,14.18716 12.53678,14.28114 21.01563,22.20898 15.3113,14.31682 17.39436,16.99774 19.63672,25.25781 1.45414,5.35472 2.07113,6.87539 7.33008,18.03711 2.73003,5.79599 5.22698,11.55293 6.17578,14.24024 0.9046,2.56281 1.18387,2.09128 -2.52149,4.26367 -1.3245,0.77643 -2.40989,1.54449 -2.41211,1.70508 -0.0147,0.96207 3.21091,2.30112 13.88868,5.77148 13.79526,4.48399 16.09415,6.16688 12.875,9.41992 -2.31236,2.33667 -3.92402,2.57791 -17.24414,2.57422 -13.63911,-0.004 -17.32961,-0.39963 -18.85743,-2.01953 -1.07697,-1.14254 -1.43467,-0.39111 4.1543,-8.76758 2.73151,-4.09357 4.93092,-7.47171 4.88672,-7.50781 -0.0436,-0.0361 -4.58872,0.36248 -10.09961,0.88477 l -10.01953,0.94922 -7.66992,-0.6504 c -4.21808,-0.35801 -7.78047,-0.73888 -7.91602,-0.8457 -0.13628,-0.10607 -4.86094,-9.64171 -10.5,-21.18945 l -10.25195,-20.99609 -15.47852,-9.83985 -15.47851,-9.83789 -6.43164,0.14844 c -3.53741,0.081 -7.30516,0.21436 -8.3711,0.29687 l -1.9375,0.15039 -12.9375,14.25391 -12.9375,14.25391 -16.11133,15.46289 -16.10937,15.46289 -4.84766,0.61328 -4.8457,0.61133 -10.0293,-1.42774 c -5.51604,-0.78527 -10.061301,-1.39598 -10.099606,-1.35547 -0.03903,0.0405 2.316496,3.29576 5.234376,7.23243 2.91787,3.93666 5.27342,7.28062 5.23437,7.43164 -0.0398,0.15027 -0.90747,1.57484 -1.92773,3.16601 l -1.85547,2.89453 -9.771484,-0.0156 c -14.856782,-0.0249 -15.151346,-0.14707 -12.986328,-5.40235 1.034258,-2.51123 1.359853,-2.87397 5.316406,-5.90234 6.843491,-5.23759 9.292106,-7.33443 9.910157,-8.49023 0.190055,-0.35509 -0.291267,-0.86517 -2.798829,-2.96094 -1.666306,-1.39227 -3.021552,-2.70848 -3.009765,-2.92578 0.0641,-1.24494 34.005793,-47.56539 39.843753,-54.375 3.24495,-3.78491 8.7391,-10.57952 12.21093,-15.09961 l 6.3125,-8.21875 2.26368,-5.75977 c 1.24421,-3.16833 2.45056,-6.346 2.67968,-7.06054 0.25488,-0.79448 0.21905,-1.20221 0.97071,-1.15625 z"
         transform="matrix(1.0812067,0,0,1.0812067,-57.407611,42.762692)" />
      <g
         style="display:block;fill:#ffffff"
         id="g88"
         transform="matrix(0.77661746,0,0,0.77661746,22.093596,108.22785)" />
    </g>
  </g>
</svg>
