<?xml version="1.0" encoding="UTF-8" standalone="no"?>
<!-- Created with Inkscape (http://www.inkscape.org/) -->

<svg
   width="400"
   height="400"
   viewBox="0 0 400.00001 400.00001"
   version="1.1"
   id="svg5"
   inkscape:version="1.1.2 (b8e25be8, 2022-02-05)"
   sodipodi:docname="karate-labs-logo-nowhite.svg"
   xmlns:inkscape="http://www.inkscape.org/namespaces/inkscape"
   xmlns:sodipodi="http://sodipodi.sourceforge.net/DTD/sodipodi-0.dtd"
   xmlns="http://www.w3.org/2000/svg"
   xmlns:svg="http://www.w3.org/2000/svg">
  <sodipodi:namedview
     id="namedview7"
     pagecolor="#ffffff"
     bordercolor="#666666"
     borderopacity="1.0"
     inkscape:pageshadow="2"
     inkscape:pageopacity="0.0"
     inkscape:pagecheckerboard="0"
     inkscape:document-units="px"
     showgrid="true"
     units="px"
     inkscape:zoom="1.1852735"
     inkscape:cx="283.90072"
     inkscape:cy="290.65022"
     inkscape:window-width="1728"
     inkscape:window-height="989"
     inkscape:window-x="0"
     inkscape:window-y="38"
     inkscape:window-maximized="0"
     inkscape:current-layer="g832">
    <inkscape:grid
       type="xygrid"
       id="grid9" />
  </sodipodi:namedview>
  <defs
     id="defs2">
    <rect
       x="30"
       y="430"
       width="290"
       height="70"
       id="rect629" />
  </defs>
  <g
     inkscape:label="Layer 1"
     inkscape:groupmode="layer"
     id="layer1">
    <g
       id="g832"
       transform="matrix(0.77074379,0,0,0.77074379,77.579893,-27.625745)">
      <path
         id="path727"
         style="fill:#000000;stroke-width:1.66667"
         inkscape:label="circle"
         d="M 200,22 A 150,150 0 0 0 50,172 150,150 0 0 0 200,322 150,150 0 0 0 350,172 150,150 0 0 0 200,22 Z m 7.95898,37.667969 c 2.35545,-0.03399 3.90034,0.09518 5.36719,0.376953 3.63906,0.699819 3.88943,1.163254 2.375,4.408203 -1.50768,3.230216 -1.43331,2.498798 -1.48242,14.167969 -0.0418,9.791937 -0.24769,13.511967 -0.7793,14.042968 -0.054,0.05464 -1.1262,0.369567 -2.38281,0.699219 -4.15593,1.090243 -4.05281,0.960425 -4.54883,5.791016 -0.21486,2.087793 -0.37656,3.808983 -0.35937,3.826173 0.0171,0.0166 4.27988,0.92365 9.47265,2.01758 l 9.44141,1.98828 5.12109,2.88476 5.11914,2.88477 3.75586,6.17773 c 2.06509,3.39843 3.78349,6.17969 3.82032,6.17969 0.0375,0 2.96915,-1.11353 6.51367,-2.47266 3.54452,-1.35973 6.47634,-2.43967 6.51562,-2.40039 0.0958,0.0958 3.17986,21.20486 3.10742,21.26563 -0.44751,0.37753 -21.19171,6.498 -21.6914,6.40039 -0.34684,-0.0681 -4.06392,-1.17961 -8.25977,-2.46875 -4.19583,-1.28913 -7.66126,-2.31222 -7.70117,-2.27539 -0.04,0.0375 -0.24948,4.35855 -0.4668,9.60351 -0.21792,5.24497 -0.41758,9.54861 -0.44336,9.56641 -0.0257,0.0177 -1.73909,1.43718 -3.80664,3.15235 l -3.76171,3.11914 -2.93946,-0.0996 c -1.61695,-0.0553 -9.25003,-0.19866 -16.96093,-0.31836 l -14.01954,-0.2168 -4.53515,-2.80273 c -2.4948,-1.54145 -5.16223,-3.18168 -5.92774,-3.64454 -1.68263,-1.01904 -1.70021,-0.49925 0.1543,-4.5625 0.85084,-1.86311 1.54687,-3.50697 1.54687,-3.65429 0,-0.16943 6.08047,-2.38321 16.58204,-6.03516 9.62375,-3.34624 16.35036,-5.78621 16.02929,-5.81445 -1.35666,-0.11909 -32.70537,-0.89649 -34.37695,-0.85352 -3.16392,0.0829 -10.29052,-3.47065 -13.8418,-6.90039 -0.39717,-0.38365 -1.02424,-19.68077 -0.65039,-20.02148 4.92022,-4.4862 7.96497,-6.67483 13.30078,-9.5625 l 5.39063,-2.91992 7.4375,0.29687 c 6.48928,0.25844 7.51019,0.25699 8.0332,-0.004 0.32904,-0.16451 3.94562,-1.671881 8.03711,-3.349605 l 7.43945,-3.050781 -7.05273,-0.457032 c -3.87909,-0.251689 -7.19832,-0.456194 -7.37695,-0.453124 -0.46471,0.0092 -4.9476,-6.246708 -5.14649,-7.181641 -0.0878,-0.41191 -0.64818,-4.005341 -1.24609,-7.986328 l -1.08789,-7.240235 3.17383,-5.388672 c 2.46778,-4.191546 3.26655,-5.392521 3.59375,-5.402343 0.23143,-0.0074 4.40913,-0.326652 9.28515,-0.710938 4.71058,-0.371088 7.87698,-0.567569 10.23242,-0.601562 z m 58.96094,45.248051 3.54492,0.10937 c 1.94967,0.0608 4.4736,0.19994 5.60743,0.30859 2.20134,0.21179 3.64063,0.59936 4.36132,1.17579 0.44138,0.35297 0.67314,2.66576 1.15625,11.55468 l 0.0488,0.88867 -9.48437,4.00977 c -5.21612,2.20504 -9.63771,4.05898 -9.82618,4.11914 -0.40515,0.12953 -5.49806,-7.04663 -5.19726,-7.32226 0.0988,-0.0909 1.57042,-0.69428 3.27148,-1.34375 1.70044,-0.64949 3.14101,-1.20988 3.20118,-1.2461 0.0602,-0.0363 10e-4,-1.76578 -0.13282,-3.84375 -0.13383,-2.07858 -0.1879,-3.87337 -0.11914,-3.98633 0.0694,-0.11356 0.90106,-1.15422 1.84766,-2.31445 z m 0.49805,6.79492 c -0.0896,0 -0.10723,0.4421 -0.041,0.98047 0.0657,0.53898 0.23225,2.27714 0.36914,3.86523 0.13751,1.58748 0.27751,2.92259 0.3125,2.9668 0.0866,0.10865 7.91083,-2.11595 7.90039,-2.2461 -0.0116,-0.14057 -8.3372,-5.5664 -8.54101,-5.5664 z m -51.04688,11.20117 c -0.37193,0.19682 -1.44068,2.24777 -3.57421,6.3457 -2.03069,3.89995 -4.24673,8.14289 -4.92383,9.42774 l -1.23243,2.33593 4.01758,-3.125 4.01953,-3.125 0.11719,-1.39062 c 0.0645,-0.76612 0.49902,-3.32738 0.9668,-5.69141 0.65562,-3.31616 0.98131,-4.97416 0.60937,-4.77734 z m -53.50976,51.38867 c 0.62638,0.0383 1.91113,0.45435 4.75,1.30274 2.61633,0.78206 6.93673,1.9528 9.60156,2.60351 2.66484,0.65009 4.9549,1.24068 5.0918,1.3125 0.15961,0.0841 -0.38003,0.87089 -1.52735,2.22266 L 179,183.83594 l -2.11914,5.29297 -2.11914,5.29492 6.43164,-0.14844 c 3.53715,-0.081 6.44096,-0.15774 6.45508,-0.17187 0.0135,-0.0141 0.2271,-2.02067 0.47265,-4.45899 0.40578,-4.02212 0.48821,-4.47185 0.90625,-4.8457 0.25292,-0.22713 1.95777,-1.50332 3.78711,-2.83789 l 3.32617,-2.42578 3.48829,2.4707 3.49023,2.47266 0.36524,4.69531 c 0.20135,2.58318 0.3799,4.69726 0.39648,4.69726 0.0165,0 2.54691,-0.0294 5.62305,-0.0645 l 5.59375,-0.0625 -3.35352,-6.94726 c -1.84469,-3.82016 -3.32673,-6.97623 -3.29297,-7.01368 0.0344,-0.0375 2.22858,-0.28498 4.875,-0.55078 4.49972,-0.45182 5.0334,-0.54955 8.25195,-1.5293 1.89258,-0.57582 3.56795,-1.04687 3.72266,-1.04687 0.15469,0 4.12634,4.38221 8.82617,9.73828 10.37205,11.82264 10.44797,11.90128 17.51367,18.50781 12.75942,11.93068 14.49661,14.16544 16.36524,21.04883 1.21179,4.46227 1.72496,5.72786 6.10742,15.0293 2.27503,4.82999 4.35582,9.62776 5.14649,11.86719 0.75383,2.13568 0.98623,1.74436 -2.10157,3.55468 -1.10375,0.64703 -2.00987,1.2861 -2.01172,1.41993 -0.0122,0.80172 2.67608,1.91857 11.57422,4.81054 11.49606,3.73666 13.4131,5.13679 10.73047,7.84766 -1.92696,1.94722 -3.26903,2.14955 -14.36914,2.14648 -11.36592,-0.003 -14.44362,-0.33368 -15.7168,-1.68359 -0.89747,-0.95212 -1.19458,-0.3243 3.46289,-7.30469 2.27626,-3.41131 4.1091,-6.22773 4.07227,-6.25781 -0.0363,-0.03 -3.82361,0.30109 -8.41601,0.73633 l -8.34961,0.79101 -6.39063,-0.54101 c -3.51506,-0.29835 -6.4847,-0.61607 -6.59766,-0.70508 -0.11356,-0.0884 -4.05078,-8.03509 -8.75,-17.6582 l -8.54296,-17.4961 -12.89844,-8.19922 -12.90039,-8.19921 -5.35938,0.12304 c -2.94783,0.0675 -6.08632,0.17928 -6.97461,0.24805 l -1.61523,0.125 -10.78125,11.87891 -10.78125,11.8789 -13.42578,12.88672 -13.42383,12.88477 -4.04102,0.50976 -4.03711,0.50977 -8.35742,-1.18946 c -4.5967,-0.65439 -8.38409,-1.16267 -8.41601,-1.1289 -0.0325,0.0338 1.92976,2.74483 4.36132,6.02539 2.43157,3.28055 4.39387,6.06751 4.36133,6.19336 -0.0331,0.12522 -0.75525,1.31465 -1.60547,2.64062 l -1.54687,2.41016 -8.14453,-0.0137 c -12.380654,-0.0208 -12.624496,-0.12256 -10.82031,-4.50196 0.86188,-2.09269 1.13256,-2.39237 4.42968,-4.91601 5.70291,-4.36466 7.74277,-6.113 8.25782,-7.07617 0.15838,-0.29591 -0.2424,-0.72033 -2.33204,-2.4668 -1.38858,-1.16022 -2.51568,-2.25837 -2.50585,-2.43945 0.0534,-1.03745 28.3362,-39.63783 33.20117,-45.3125 2.70412,-3.15409 7.28454,-8.81725 10.17773,-12.58399 l 5.25977,-6.84765 1.88476,-4.80079 c 1.03684,-2.64027 2.04149,-5.28735 2.23242,-5.88281 0.2124,-0.66206 0.18221,-1.00118 0.8086,-0.96289 z"
         transform="matrix(1.297448,0,0,1.297448,-100.65588,35.842968)" />
    </g>
    <g
       aria-label="Karate Labs"
       transform="matrix(1.2321368,0,0,1.2321368,19.635195,-194.81707)"
       id="text627"
       style="font-weight:bold;font-size:40px;line-height:1.25;font-family:'Helvetica Neue';-inkscape-font-specification:'Helvetica Neue, Bold';white-space:pre;shape-inside:url(#rect629);fill:#000000"
       inkscape:label="text627">
      <path
         d="m 32.76,439.15812 v 28.56 h 6.28 v -9.2 l 3.6,-3.64 8.6,12.84 h 7.88 l -12.24,-17.28 11.16,-11.28 H 50.2 l -11.16,11.84 v -11.84 z"
         id="path1211"
         style="fill:#000000" />
      <path
         d="m 60.82625,453.39812 q 0.12,-2 1,-3.32 0.88,-1.32 2.24,-2.12 1.36,-0.8 3.04,-1.12 1.72,-0.36 3.44,-0.36 1.56,0 3.16,0.24 1.6,0.2 2.92,0.84 1.32,0.64 2.16,1.8 0.84,1.12 0.84,3 v 10.76 q 0,1.4 0.16,2.68 0.16,1.28 0.56,1.92 h -5.76 q -0.16,-0.48 -0.28,-0.96 -0.08,-0.52 -0.12,-1.04 -1.36,1.4 -3.2,1.96 -1.84,0.56 -3.76,0.56 -1.48,0 -2.76,-0.36 -1.28,-0.36 -2.24,-1.12 -0.96,-0.76 -1.52,-1.92 -0.52,-1.16 -0.52,-2.76 0,-1.76 0.6,-2.88 0.64,-1.16 1.6,-1.84 1,-0.68 2.24,-1 1.28,-0.36 2.56,-0.56 1.28,-0.2 2.52,-0.32 1.24,-0.12 2.2,-0.36 0.96,-0.24 1.52,-0.68 0.56,-0.48 0.52,-1.36 0,-0.92 -0.32,-1.44 -0.28,-0.56 -0.8,-0.84 -0.48,-0.32 -1.16,-0.4 -0.64,-0.12 -1.4,-0.12 -1.68,0 -2.64,0.72 -0.96,0.72 -1.12,2.4 z m 13.12,4.2 q -0.36,0.32 -0.92,0.52 -0.52,0.16 -1.16,0.28 -0.6,0.12 -1.28,0.2 -0.68,0.08 -1.36,0.2 -0.64,0.12 -1.28,0.32 -0.6,0.2 -1.08,0.56 -0.44,0.32 -0.72,0.84 -0.28,0.52 -0.28,1.32 0,0.76 0.28,1.28 0.28,0.52 0.76,0.84 0.48,0.28 1.12,0.4 0.64,0.12 1.32,0.12 1.68,0 2.6,-0.56 0.92,-0.56 1.36,-1.32 0.44,-0.8 0.52,-1.6 0.12,-0.8 0.12,-1.28 z"
         id="path1213"
         style="fill:#000000" />
      <path
         d="m 84.035,447.03812 v 20.68 h 5.68 v -9.32 q 0,-1.4 0.28,-2.6 0.28,-1.2 0.92,-2.08 0.68,-0.92 1.76,-1.44 1.08,-0.52 2.64,-0.52 0.52,0 1.08,0.08 0.56,0.04 0.96,0.12 v -5.28 q -0.68,-0.2 -1.24,-0.2 -1.08,0 -2.08,0.32 -1,0.32 -1.88,0.92 -0.88,0.56 -1.56,1.4 -0.68,0.8 -1.08,1.76 h -0.08 v -3.84 z"
         id="path1215"
         style="fill:#000000" />
      <path
         d="m 99.341875,453.39812 q 0.12,-2 1.000005,-3.32 0.87999,-1.32 2.23999,-2.12 1.36,-0.8 3.04001,-1.12 1.72,-0.36 3.44,-0.36 1.56,0 3.15999,0.24 1.60001,0.2 2.92001,0.84 1.32,0.64 2.15999,1.8 0.84001,1.12 0.84001,3 v 10.76 q 0,1.4 0.15999,2.68 0.16,1.28 0.56,1.92 h -5.75999 q -0.16001,-0.48 -0.28,-0.96 -0.08,-0.52 -0.12,-1.04 -1.36,1.4 -3.20001,1.96 -1.84,0.56 -3.76,0.56 -1.47999,0 -2.75999,-0.36 -1.28,-0.36 -2.24001,-1.12 -0.959995,-0.76 -1.519995,-1.92 -0.52,-1.16 -0.52,-2.76 0,-1.76 0.6,-2.88 0.64,-1.16 1.600005,-1.84 1,-0.68 2.24,-1 1.28,-0.36 2.56,-0.56 1.28,-0.2 2.51999,-0.32 1.24,-0.12 2.20001,-0.36 0.96,-0.24 1.51999,-0.68 0.56,-0.48 0.52,-1.36 0,-0.92 -0.31999,-1.44 -0.28001,-0.56 -0.8,-0.84 -0.48001,-0.32 -1.16,-0.4 -0.64,-0.12 -1.4,-0.12 -1.68,0 -2.64,0.72 -0.96,0.72 -1.12001,2.4 z m 13.119995,4.2 q -0.35999,0.32 -0.91999,0.52 -0.52001,0.16 -1.16,0.28 -0.6,0.12 -1.28,0.2 -0.68,0.08 -1.36001,0.2 -0.63999,0.12 -1.27999,0.32 -0.60001,0.2 -1.08,0.56 -0.44001,0.32 -0.72001,0.84 -0.27999,0.52 -0.27999,1.32 0,0.76 0.27999,1.28 0.28,0.52 0.76001,0.84 0.48,0.28 1.12,0.4 0.64,0.12 1.31999,0.12 1.68001,0 2.60001,-0.56 0.92,-0.56 1.36,-1.32 0.44,-0.8 0.52,-1.6 0.11999,-0.8 0.11999,-1.28 z"
         id="path1217"
         style="fill:#000000" />
      <path
         d="m 129.75063,447.03812 v -6.2 h -5.68 v 6.2 h -3.44001 v 3.8 h 3.44001 v 12.2 q 0,1.56 0.52,2.52 0.52,0.96 1.39999,1.48 0.92,0.52 2.08,0.68 1.2,0.2 2.52,0.2 0.84,0 1.72,-0.04 0.88,-0.04 1.6,-0.16 v -4.4 q -0.4,0.08 -0.84,0.12 -0.44,0.04 -0.92,0.04 -1.44,0 -1.92,-0.48 -0.47999,-0.48 -0.47999,-1.92 v -10.24 h 4.15999 v -3.8 z"
         id="path1219"
         style="fill:#000000" />
      <path
         d="m 150.53312,455.15812 h -9.24 q 0.04,-0.6 0.24,-1.36 0.24,-0.76 0.76,-1.44 0.56,-0.68 1.44,-1.12 0.92,-0.48 2.28,-0.48 2.08,0 3.08,1.12 1.04,1.12 1.44,3.28 z m -9.24,3.6 h 14.92 q 0.16001,-2.4 -0.39999,-4.6 -0.56001,-2.2 -1.84001,-3.92 -1.24,-1.72 -3.2,-2.72 -1.95999,-1.04 -4.6,-1.04 -2.35999,0 -4.32,0.84 -1.92,0.84 -3.32,2.32 -1.4,1.44 -2.16,3.44 -0.76,2 -0.76,4.32 0,2.4 0.72,4.4 0.76,2 2.12,3.44 1.36001,1.44 3.32,2.24 1.96,0.76 4.4,0.76 3.52,0 6,-1.6 2.48,-1.6 3.68,-5.32 h -5 q -0.28,0.96 -1.52,1.84 -1.24,0.84 -2.96,0.84 -2.4,0 -3.68,-1.24 -1.28,-1.24 -1.4,-4 z"
         id="path1221"
         style="fill:#000000" />
      <path
         d="m 171.27562,439.15812 v 28.56 h 20.2 v -5.28 h -13.92 v -23.28 z"
         id="path1223"
         style="fill:#000000" />
      <path
         d="m 194.18562,453.39812 q 0.12,-2 1,-3.32 0.88,-1.32 2.24,-2.12 1.36,-0.8 3.04,-1.12 1.72,-0.36 3.44,-0.36 1.56,0 3.16,0.24 1.6,0.2 2.92,0.84 1.32,0.64 2.16,1.8 0.84,1.12 0.84,3 v 10.76 q 0,1.4 0.16,2.68 0.16,1.28 0.56,1.92 h -5.76 q -0.16,-0.48 -0.28,-0.96 -0.08,-0.52 -0.12,-1.04 -1.35999,1.4 -3.2,1.96 -1.84,0.56 -3.76,0.56 -1.48,0 -2.76,-0.36 -1.28,-0.36 -2.24,-1.12 -0.95999,-0.76 -1.52,-1.92 -0.52,-1.16 -0.52,-2.76 0,-1.76 0.6,-2.88 0.64,-1.16 1.6,-1.84 1,-0.68 2.24,-1 1.28,-0.36 2.56,-0.56 1.28,-0.2 2.52,-0.32 1.24,-0.12 2.2,-0.36 0.96,-0.24 1.52,-0.68 0.56,-0.48 0.52,-1.36 0,-0.92 -0.32,-1.44 -0.28,-0.56 -0.79999,-0.84 -0.48001,-0.32 -1.16001,-0.4 -0.64,-0.12 -1.39999,-0.12 -1.68001,0 -2.64001,0.72 -0.96,0.72 -1.12,2.4 z m 13.12,4.2 q -0.36,0.32 -0.92,0.52 -0.52,0.16 -1.16,0.28 -0.59999,0.12 -1.28,0.2 -0.68,0.08 -1.36,0.2 -0.64,0.12 -1.28,0.32 -0.6,0.2 -1.08,0.56 -0.44,0.32 -0.72,0.84 -0.28,0.52 -0.28,1.32 0,0.76 0.28,1.28 0.28,0.52 0.76,0.84 0.48,0.28 1.12,0.4 0.64,0.12 1.32,0.12 1.68,0 2.6,-0.56 0.92,-0.56 1.36,-1.32 0.44,-0.8 0.52,-1.6 0.12,-0.8 0.12,-1.28 z"
         id="path1225"
         style="fill:#000000" />
      <path
         d="m 232.55437,457.39812 q 0,1.28 -0.28,2.48 -0.28,1.2 -0.88,2.12 -0.6,0.92 -1.52,1.48 -0.88,0.52 -2.16,0.52 -1.24,0 -2.16,-0.52 -0.92,-0.56 -1.52,-1.48 -0.6,-0.92 -0.88,-2.12 -0.28,-1.2 -0.28,-2.48 0,-1.32 0.28,-2.52 0.28,-1.2 0.88,-2.12 0.6,-0.92 1.52,-1.44 0.92,-0.56 2.16,-0.56 1.28,0 2.16,0.56 0.92,0.52 1.52,1.44 0.6,0.92 0.88,2.12 0.28,1.2 0.28,2.52 z m -15.16,-18.24 v 28.56 h 5.4 v -2.64 h 0.08 q 0.92,1.72 2.72001,2.44 1.79999,0.72 4.07999,0.72 1.56,0 3.08,-0.64 1.52,-0.64 2.72,-1.96 1.24,-1.32 2,-3.36 0.76,-2.08 0.76,-4.92 0,-2.84 -0.76,-4.88 -0.76,-2.08 -2,-3.4 -1.2,-1.32 -2.72,-1.96 -1.52,-0.64 -3.08,-0.64 -1.92,0 -3.72,0.76 -1.76,0.72 -2.8,2.32 h -0.08 v -10.4 z"
         id="path1227"
         style="fill:#000000" />
      <path
         d="m 246.2475,460.99812 h -5.4 q 0.08,2.08 0.92,3.48 0.88,1.36 2.2,2.2 1.36,0.84 3.08,1.2 1.72,0.36 3.52,0.36 1.76,0 3.44,-0.36 1.72,-0.32 3.04,-1.16 1.32,-0.84 2.12,-2.2 0.84,-1.4 0.84,-3.44 0,-1.44 -0.56,-2.4 -0.56,-1 -1.48,-1.64 -0.92,-0.68 -2.12,-1.08 -1.16,-0.4 -2.4,-0.68 -1.2,-0.28 -2.36,-0.52 -1.16,-0.24 -2.08,-0.52 -0.88,-0.32 -1.44,-0.8 -0.56,-0.48 -0.56,-1.24 0,-0.64 0.32,-1 0.32,-0.4 0.76,-0.6 0.48,-0.2 1.04,-0.24 0.56,-0.08 1.04,-0.08 1.52,0 2.64,0.6 1.12,0.56 1.24,2.2 h 5.4 q -0.16,-1.92 -1,-3.16 -0.8,-1.28 -2.04,-2.04 -1.24,-0.76 -2.84,-1.08 -1.56,-0.32 -3.24,-0.32 -1.68,0 -3.28,0.32 -1.6,0.28 -2.88,1.04 -1.28,0.72 -2.08,2 -0.76,1.28 -0.76,3.28 0,1.36 0.56,2.32 0.56,0.92 1.48,1.56 0.92,0.6 2.08,1 1.2,0.36 2.44,0.64 3.04,0.64 4.72,1.28 1.72,0.64 1.72,1.92 0,0.76 -0.36,1.28 -0.36,0.48 -0.92,0.8 -0.52,0.28 -1.2,0.44 -0.64,0.12 -1.24,0.12 -0.84,0 -1.64,-0.2 -0.76,-0.2 -1.36,-0.6 -0.6,-0.44 -1,-1.08 -0.36,-0.68 -0.36,-1.6 z"
         id="path1229"
         style="fill:#000000" />
    </g>
  </g>
</svg>
